<svg xmlns="http://www.w3.org/2000/svg" enable-background="new 0 0 64 64" viewBox="0 0 64 64"><polygon fill="#0676B2" points="60 53 60 57 54 57 54 22 54 6 55 6 59 6 60 6 60 18 60 23 60 28 60 33 60 38 60 43 60 48"/><path fill="#045886" d="M59,6h-2v46c0,1.105-0.895,2-2,2h-1v3h6v-4V6H59z"/><path fill="#FA0" d="M20.8,45c0.13,0.64,0.2,1.31,0.2,2c0,5.52-4.48,10-10,10S1,52.52,1,47s4.48-10,10-10
	c2.79,0,5.32,1.15,7.14,3C19.46,41.35,20.41,43.07,20.8,45z M18,47c0-3.86-3.14-7-7-7s-7,3.14-7,7s3.14,7,7,7S18,50.86,18,47z"/><circle cx="11" cy="47" r="7" fill="#FEC430"/><rect width="4" height="5" x="55" y="1" fill="#9898AD"/><path fill="#4B4B60" d="M57,1v2c0,0.552-0.448,1-1,1h-1v2h4V1H57z"/><polygon fill="#9898AD" points="60 57 60 63 2 63 2 57 11 57 21 57 28 57 34 57 40 57 46 57 54 57"/><path fill="#4B4B60" d="M57,57v2c0,0.552-0.448,1-1,1H2v3h58v-6H57z"/><path fill="#9BD76B" d="M50,18h-4v4v4v1c0,1.1-0.9,2-2,2h-2c-1.1,0-2,0.9-2,2v2v2c0,1.1-0.9,2-2,2h-4h-4c-1.1,0-2,0.9-2,2v3v1
	c0,1.1-0.9,2-2,2h-5h-0.2c-0.39-1.93-1.34-3.65-2.66-5H20c1.1,0,2-0.9,2-2v-4c0-1.1,0.9-2,2-2h8c1.1,0,2-0.9,2-2v-4c0-1.1,0.9-2,2-2
	h2c1.1,0,2-0.9,2-2v-4h-4l7-6L50,18z"/><polygon fill="#319B2C" points="54 22 54 57 46 57 46 27 46 26 46 22"/><path fill="#5EB05A" d="M46,27v30h-6V35v-2v-2c0-1.1,0.9-2,2-2h2C45.1,29,46,28.1,46,27z"/><path fill="#319B2C" d="M40,35v22h-6V37h4C39.1,37,40,36.1,40,35z"/><path fill="#5EB05A" d="M34,37v20h-6V43v-1v-3c0-1.1,0.9-2,2-2H34z"/><path fill="#319B2C" d="M28,43v14h-7V47v-2h5C27.1,45,28,44.1,28,43z"/><path fill="#5EB05A" d="M21,47v10H11C16.52,57,21,52.52,21,47z"/><path fill="#2C2638" d="M12,52h0.55C13.9,52,15,50.9,15,49.55v-1.1C15,47.1,13.9,46,12.55,46h-3.1C9.202,46,9,45.798,9,45.55v-1.1
		C9,44.202,9.202,44,9.45,44h2.859c0.248,0,0.45,0.202,0.45,0.45c0,0.553,0.447,1,1,1s1-0.447,1-1c0-1.351-1.1-2.45-2.45-2.45H12
		c0-0.553-0.447-1-1-1s-1,0.447-1,1H9.45C8.1,42,7,43.1,7,44.45v1.1C7,46.9,8.1,48,9.45,48h3.1c0.248,0,0.45,0.202,0.45,0.45v1.1
		c0,0.248-0.202,0.45-0.45,0.45H9.41c-0.243,0-0.44-0.202-0.44-0.45c0-0.553-0.447-1-1-1s-1,0.447-1,1C6.97,50.9,8.064,52,9.41,52
		H10c0,0.553,0.447,1,1,1S12,52.553,12,52z"/><path fill="#2C2638" d="M11,39c-4.411,0-8,3.589-8,8s3.589,8,8,8s8-3.589,8-8S15.411,39,11,39z M11,53c-3.309,0-6-2.691-6-6
		s2.691-6,6-6s6,2.691,6,6S14.309,53,11,53z"/><path fill="#2C2638" d="M63,19c0.553,0,1-0.447,1-1s-0.447-1-1-1h-2V6c0-0.553-0.447-1-1-1V1c0-0.553-0.447-1-1-1h-4
		c-0.553,0-1,0.447-1,1v4c-0.553,0-1,0.447-1,1v15h-6v-2h3c0.419,0,0.793-0.261,0.938-0.653c0.146-0.393,0.031-0.834-0.287-1.105
		l-7-6c-0.373-0.322-0.928-0.322-1.301,0l-7,6c-0.318,0.271-0.433,0.713-0.287,1.105C35.207,18.739,35.581,19,36,19h3v3
		c0,0.552-0.448,1-1,1h-2c-1.654,0-3,1.346-3,3v4c0,0.552-0.448,1-1,1h-8c-1.654,0-3,1.346-3,3v4c0,0.552-0.448,1-1,1h-1.472
		c-2.053-1.931-4.704-3-7.528-3C4.935,36,0,40.935,0,47c0,3.72,1.861,7.008,4.695,9H2c-0.553,0-1,0.447-1,1v6c0,0.553,0.447,1,1,1
		h58c0.553,0,1-0.447,1-1v-9h2c0.553,0,1-0.447,1-1s-0.447-1-1-1h-2v-3h2c0.553,0,1-0.447,1-1s-0.447-1-1-1h-2v-3h2
		c0.553,0,1-0.447,1-1s-0.447-1-1-1h-2v-3h2c0.553,0,1-0.447,1-1s-0.447-1-1-1h-2v-3h2c0.553,0,1-0.447,1-1s-0.447-1-1-1h-2v-3h2
		c0.553,0,1-0.447,1-1s-0.447-1-1-1h-2v-3h2c0.553,0,1-0.447,1-1s-0.447-1-1-1h-2v-3H63z M55,7h4v49h-4V7z M56,2h2v3h-2V2z M53,23
		v33h-6V23H53z M41,56V31c0-0.552,0.448-1,1-1h2c0.352,0,0.686-0.072,1-0.184V56H41z M35,56V38h3c0.352,0,0.686-0.072,1-0.184V56H35
		z M29,56V39c0-0.552,0.448-1,1-1h3v18H29z M22,56V46h4c0.352,0,0.686-0.072,1-0.184V56H22z M17.305,56
		c1.047-0.736,1.959-1.648,2.695-2.695V56H17.305z M23,38v-4c0-0.552,0.448-1,1-1h8c1.654,0,3-1.346,3-3v-4c0-0.552,0.448-1,1-1h2
		c1.654,0,3-1.346,3-3v-4c0-0.553-0.447-1-1-1h-1.297L43,13.317L47.297,17H46c-0.553,0-1,0.447-1,1v9c0,0.552-0.448,1-1,1h-2
		c-1.654,0-3,1.346-3,3v4c0,0.552-0.448,1-1,1h-8c-1.654,0-3,1.346-3,3v4c0,0.552-0.448,1-1,1h-4.443
		c-0.304-1.072-0.766-2.086-1.379-3.018C21.748,40.888,23,39.594,23,38z M2,47c0-4.963,4.037-9,9-9c2.431,0,4.713,0.959,6.425,2.699
		c1.226,1.253,2.054,2.809,2.395,4.5C19.939,45.788,20,46.394,20,47c0,4.963-4.037,9-9,9S2,51.963,2,47z M59,62H3v-4h56V62z"/></svg>